<svg xmlns="http://www.w3.org/2000/svg" viewBox="0 0 1332.3 283.5">
    <path
        d="M1143.5 197.7c1.1 0 1.9-.8 1.9-1.9v-17.4c0-1.1-.8-1.9-1.9-1.9h-2.6c-5.1 0-7.3-2.3-7.3-7.9V124c0-.8.4-1.1 1.1-1.1h8.9c1.1 0 1.9-.8 1.9-1.9v-13.8c0-1.1-.8-1.9-1.9-1.9h-8.9c-.8 0-1.1-.4-1.1-1.1V79.7c0-1.1-.8-1.9-1.9-1.9h-19.8c-1.1 0-1.9.8-1.9 1.9v24.5c0 .8-.4 1.1-1.1 1.1h-5.7c-1.1 0-1.9.8-1.9 1.9V121c0 1.1.8 1.9 1.9 1.9h5.7c.8 0 1.1.4 1.1 1.1v45.6c0 21.3 8.7 28.1 27.2 28.1h6.3zm-80.1.6c19.4 0 30.6-11.7 30.6-28.9 0-14.1-5.7-23-21.3-28.5l-7.3-2.6c-6.6-2.4-8.7-5.5-8.7-8.9 0-4.3 2.6-7.5 7.3-7.5 5.1 0 7.3 2.8 8.5 7.2.2 1.1.9 1.7 2.1 1.5l16.4-3c.9-.2 1.3-1.1 1.1-2.4-1.5-11.9-10.9-21.5-28.3-21.5-18.3 0-29.2 11.3-29.2 27.5 0 13.9 7.7 23 21.3 27.7l7.3 2.6c6.4 2.4 8.5 4.9 8.5 10s-3.2 8.3-8.3 8.3c-4.9 0-8.5-3-9.2-9.2-.2-1.1-1.1-1.7-2.3-1.5l-17.3 3.2c-1.1.2-1.7.9-1.5 2.1 1.2 14.7 12 23.9 30.3 23.9m-71-20.7c-4 0-6.4-1.9-7.5-5.3-.6-2.1-.8-4-.8-21.3s.2-19.2.8-21.3c1.1-3.4 3.6-5.3 7.5-5.3 4 0 6.4 1.9 7.5 5.3.6 2.1.8 4 .8 21.3s-.2 19.2-.8 21.3c-1.1 3.4-3.6 5.3-7.5 5.3m0 20.7c15.1 0 25.5-7 29.6-20 1.7-4.9 2.3-10 2.3-27.3s-.6-22.4-2.3-27.3c-4.2-13-14.5-20-29.6-20s-25.5 7-29.6 20c-1.7 4.9-2.3 10-2.3 27.3s.6 22.4 2.3 27.3c4.1 13 14.5 20 29.6 20m-75.3-20.7c-4 0-6.4-1.9-7.3-5.1-.8-2.3-.9-4.1-.9-21.5s.2-19.2.9-21.5c.9-3.2 3.4-5.1 7.3-5.1 4 0 6.4 1.9 7.3 5.1.8 2.3.9 4.1.9 21.5s-.2 19.2-.9 21.5c-.9 3.2-3.3 5.1-7.3 5.1m-10.2 53c1.1 0 1.9-.8 1.9-1.9v-41.3h.2c2.8 6.8 8.1 10.9 17.3 10.9 10.8 0 16.8-4.5 20.2-14.7 1.7-5.5 2.5-11.7 2.5-32.6 0-20.7-.8-27.2-2.5-32.6-3.4-10.2-9.4-14.7-20.2-14.7-9.2 0-14.7 4.3-17.5 10.9h-.2v-7.3c0-1.1-.8-1.9-1.9-1.9h-19.6c-1.1 0-1.9.8-1.9 1.9v121.4c0 1.1.8 1.9 1.9 1.9h19.8zm-37.6-34c1.1 0 1.9-.8 1.9-1.9v-63c0-19.6-7-28.1-21.5-28.1-8.9 0-14.7 4.3-17.9 10.6h-.2v-7c0-1.1-.8-1.9-1.9-1.9h-19.6c-1.1 0-1.9.8-1.9 1.9v87.5c0 1.1.8 1.9 1.9 1.9h19.8c1.1 0 1.9-.8 1.9-1.9v-59.4c0-7.2 2.6-10.8 7.9-10.8s7.9 3.6 7.9 10.8v59.4c0 1.1.8 1.9 1.9 1.9h19.8zm-97.8-54.9h-14.3c-.8 0-1.1-.4-1.1-1.1 0-8.5.4-10.8.9-12.6 1.1-3 3.4-4.9 7.3-4.9 4 0 6.2 1.9 7.3 4.9.6 1.9.9 4.2.9 12.6.2.8-.2 1.1-1 1.1m-7.5 56.6c16 0 27.7-8.5 30.4-23 .2-1.3-.2-2.1-1.3-2.3l-17.9-3.6c-1.1-.2-1.9.2-2.3 1.3-1.5 4.9-4.2 7.2-8.5 7.2-3.8 0-6.2-1.9-7.3-5.3-.6-1.5-.9-3.6-.9-13 0-.8.4-1.1 1.1-1.1h36.4c1.1 0 1.9-.8 1.9-1.9 0-23.8-.6-28.8-2.3-33.8-4.2-12.3-13.8-19.2-29.2-19.2-15.3 0-24.9 7-29 19.2-1.7 4.9-2.3 10.2-2.3 28.1s.6 23.2 2.3 28.1c4 12.3 13.4 19.3 28.9 19.3m-45.4-1.7c1.1 0 1.9-.8 1.9-1.9v-63c0-19.6-7-28.1-21.5-28.1-8.9 0-14.5 4.3-17.7 10.6h-.2V70.3c0-1.1-.8-1.9-1.9-1.9h-19.8c-1.1 0-1.9.8-1.9 1.9v124.5c0 1.1.8 1.9 1.9 1.9h19.8c1.1 0 1.9-.8 1.9-1.9v-59.4c0-7.2 2.6-10.8 7.9-10.8s7.9 3.6 7.9 10.8v59.4c0 1.1.8 1.9 1.9 1.9l19.8-.1zm-102 1.7c17.2 0 28.8-10 30-26 0-1.3-.4-1.9-1.5-2.1l-18.1-3.4c-1.1-.2-2.1.4-2.3 1.7-.6 6.4-3.4 9.1-7.7 9.1-3.6 0-5.8-1.5-7-4.7-.6-2.1-.8-4-.8-21.9s.2-19.8.8-21.9c1.1-3.2 3.4-4.7 7-4.7 4.3 0 7.2 2.6 7.7 9 .2 1.3 1.1 1.9 2.3 1.7l18.1-3.4c1.1-.2 1.5-.8 1.5-2.1-1.1-16.2-12.8-26-30-26-14.7 0-24.7 6.4-28.7 19-1.7 5.5-2.3 9.8-2.3 28.3 0 18.3.6 22.8 2.3 28.3 4 12.7 14 19.1 28.7 19.1m-70.3 0c19.4 0 30.5-11.7 30.5-28.9 0-14.1-5.7-23-21.3-28.5l-7.3-2.6c-6.6-2.4-8.7-5.5-8.7-8.9 0-4.3 2.6-7.5 7.3-7.5 5.1 0 7.3 2.8 8.5 7.2.2 1.1.9 1.7 2.1 1.5l16.4-3c.9-.2 1.3-1.1 1.1-2.4-1.5-11.9-10.9-21.5-28.3-21.5-18.3 0-29.2 11.3-29.2 27.5 0 13.9 7.7 23 21.3 27.7l7.3 2.6c6.4 2.4 8.5 4.9 8.5 10s-3.2 8.3-8.3 8.3c-4.9 0-8.5-3-9.2-9.2-.2-1.1-1.1-1.7-2.3-1.5l-17.3 3.2c-1.1.2-1.7.9-1.5 2.1 1.3 14.7 12.1 23.9 30.4 23.9M473.1 180c-5.5 0-7.9-3.8-7.9-10.4 0-6.6 3-11.1 10.9-11.1h5.1c.8 0 1.1.4 1.1 1.1v9.4c.1 6.9-3.5 11-9.2 11m30 16.6c1.1 0 1.9-.8 1.9-1.9v-59.2c0-22.1-8.1-31.9-30.9-31.9-10.9 0-20.2 2.8-26.6 7.5-.9.8-1.3 1.5-.8 2.6l6 14.3c.6 1.3 1.7 1.5 2.8.8 4.3-3 8.9-5.1 15.1-5.1 9.2 0 11.7 4 11.7 12.3v4.5c0 .8-.4 1.1-1.1 1.1h-9c-14.7 0-28.7 7-28.7 29.2 0 20.7 11.1 27.3 21.7 27.3 8.5 0 14.7-4 17-9.8h.2v6.2c0 1.1.8 1.9 1.9 1.9h18.8v.2zm-71 1.1c1.1 0 1.9-.8 1.9-1.9v-17c0-1.1-.8-1.9-1.9-2.1l-.9-.2c-4.9-.8-7.5-3.6-7.5-9.6V70.3c0-1.1-.8-1.9-1.9-1.9H402c-1.1 0-1.9.8-1.9 1.9v96.9c0 22.4 8.5 30.2 30 30.6h2v-.1zm-61.4-1.1c1.1 0 1.9-.8 1.9-1.9V124c0-.8.4-1.1 1.1-1.1h10.8c1.1 0 1.9-.8 1.9-1.9v-13.8c0-1.1-.8-1.9-1.9-1.9h-10.8c-.8 0-1.1-.4-1.1-1.1v-8.3c0-4.9 1.7-6.8 7-6.8h4.9c1.1 0 1.9-.8 1.9-1.9v-17c0-1.1-.8-1.9-1.9-1.9h-5.3c-21.3 0-30.2 10.6-30.2 30.2v5.7c0 .8-.4 1.1-1.1 1.1H342c-1.1 0-1.9.8-1.9 1.9V121c0 1.1.8 1.9 1.9 1.9h5.9c.8 0 1.1.4 1.1 1.1v70.7c0 1.1.8 1.9 1.9 1.9h19.8zm-92.5-44.5c-1.3-1.3-2-3.1-2-5v-10.8c0-1.8.7-3.6 2-4.9l2-2.1c5.3-5.6 3.9-14.8-2.9-18.4l-2.6-1.4c-1.6-.9-2.9-2.3-3.4-4.1L268 95c-.6-1.8-.4-3.7.4-5.3l1.3-2.6c3.4-7-.9-15.2-8.5-16.6l-2.9-.5c-1.8-.3-3.4-1.3-4.5-2.8l-6.4-8.8c-1.1-1.5-1.6-3.3-1.3-5.2l.4-2.9c1-7.7-5.5-14.2-13.2-13.2l-2.9.4c-1.8.2-3.7-.2-5.2-1.3l-8.8-6.4c-1.5-1.1-2.5-2.7-2.8-4.5l-.5-2.9c-1.4-7.6-9.7-11.8-16.6-8.5l-2.6 1.3c-1.7.8-3.6.9-5.3.4l-10.3-3.4c-1.8-.6-3.2-1.8-4.1-3.4l-1.4-2.6c-3.7-6.8-12.8-8.3-18.4-2.9l-2.1 2c-1.3 1.3-3.1 2-4.9 2h-10.8c-1.8 0-3.6-.7-4.9-2l-2.1-2C124-2 114.8-.6 111.2 6.2l-1.4 2.6c-.9 1.6-2.3 2.9-4.1 3.4L95 15.5c-1.8.6-3.7.4-5.3-.4l-2.6-1.3c-7-3.4-15.2.9-16.6 8.5l-.5 2.9c-.3 1.8-1.3 3.4-2.8 4.5l-8.8 6.4c-1.5 1.1-3.3 1.5-5.2 1.3l-3-.4C42.5 36 36 42.6 37 50.2l.4 2.9c.2 1.8-.2 3.7-1.3 5.2l-6.4 8.8c-1.1 1.5-2.7 2.5-4.5 2.8l-2.9.5c-7.6 1.4-11.8 9.7-8.5 16.6l1.3 2.6c.8 1.7.9 3.6.4 5.3l-3.4 10.3c-.6 1.8-1.8 3.2-3.4 4.1l-2.6 1.4c-6.8 3.7-8.3 12.8-2.9 18.4l2 2.1c1.3 1.3 2 3.1 2 4.9v10.8c0 1.8-.7 3.6-2 4.9l-2 2.1c-5.3 5.6-3.9 14.8 2.9 18.4l2.6 1.4c1.6.9 2.9 2.4 3.4 4.1l3.4 10.3c.6 1.8.4 3.7-.4 5.3l-1.3 2.6c-3.4 7 .9 15.2 8.5 16.6l2.9.5c1.8.3 3.4 1.4 4.5 2.8l6.4 8.8c1.1 1.5 1.5 3.3 1.3 5.2l-.4 2.9c-1 7.7 5.5 14.2 13.2 13.2l2.9-.4c1.8-.2 3.7.2 5.2 1.3l8.8 6.4c1.5 1.1 2.5 2.7 2.8 4.5l.5 2.9c1.4 7.6 9.7 11.8 16.6 8.5l2.6-1.3c1.7-.8 3.6-.9 5.3-.4l10.3 3.4c1.8.6 3.2 1.8 4.1 3.4l1.4 2.6c3.7 6.8 12.8 8.3 18.4 2.9l2.1-2c1.3-1.3 3.1-2 5-2H147c1.8 0 3.6.7 4.9 2l2.1 2c5.6 5.3 14.8 3.9 18.4-2.9l1.4-2.6c.9-1.6 2.3-2.9 4.1-3.4l10.3-3.4c1.8-.6 3.7-.4 5.3.4l2.6 1.3c7 3.4 15.2-.9 16.6-8.5l.5-2.9c.3-1.8 1.4-3.4 2.8-4.5l4.4-3.2h-.1l4.4-3.2c1.5-1.1 3.3-1.6 5.2-1.3l2.9.4c7.7 1 14.2-5.5 13.2-13.2l-.4-2.9c-.2-1.8.2-3.7 1.3-5.2l6.4-8.8c1.1-1.5 2.7-2.5 4.5-2.8l2.9-.5c7.6-1.4 11.8-9.7 8.5-16.6l-1.3-2.6c-.8-1.7-.9-3.6-.4-5.3l3.4-10.3c.6-1.8 1.8-3.2 3.4-4.1l2.6-1.4c6.8-3.7 8.3-12.8 2.9-18.4l-1.6-1.8zm-54.1 68.4c-21.3 22.3-51.4 35.1-82.5 35.1-26.6 0-52.5-9.3-72.8-26.3-1.2-1-1.9-2.4-1.9-3.9s.5-3 1.6-4.1l32.5-32.5c.5-.5.6-1.2.6-1.5s-.1-.9-.6-1.5L88.1 173c-2.1-2.1-2.1-5.6 0-7.7s5.6-2.1 7.7 0l12.9 12.9c2.4 2.5 3.8 5.7 3.8 9.2s-1.3 6.7-3.8 9.2l-28.2 28.1c41.6 30.8 99.8 25.8 135.7-11.7 18.3-19.1 28.4-44.4 28.4-71.1s-10-52-28.3-71.2c-19.3-20.3-45.4-31.7-73.4-32-27.9-.3-54.3 10.4-74.1 30.2C40.2 97.5 31 140.2 45.2 178L73 150.2c9.8-9.8 21.2-12.9 31.2-15.6 8.4-2.3 16.2-4.4 22.8-10.1 7-6 12.9-10.8 18.2-15.1l.1-.1c4.4-3.6 8.6-7 12.9-10.7.2-.1.2-.2.3-.3 0-.1.1-.2.1-.4v-.1c.5-2.3 1.3-4.7 4.7-7.9l.2-.2 3.9-3.4c5-4.2 12.5-3.9 17.1.7l11.8 11.8c4.6 4.6 4.9 12.2.7 17.1l-3.4 3.9c-.1.1-.1.2-.2.2-3.2 3.4-5.7 4.1-8 4.7-.2.1-.4.1-.5.1l-.3.3c-3.7 4.3-7.1 8.5-10.7 13l-.2.2c-4.2 5.2-9.1 11.1-15 18.1-5.7 6.6-7.8 14.5-10.1 22.9-2.7 10-5.8 21.4-15.6 31.2l-13.8 13.8c-1 1-2.4 1.6-3.8 1.6-1.5 0-2.8-.6-3.8-1.6s-1.6-2.4-1.6-3.9.6-2.8 1.6-3.9l13.8-13.8c7.8-7.8 10.2-16.8 12.8-26.3 2.5-9.1 5.1-18.6 12.3-27.1 5.9-6.9 10.5-12.5 14.9-17.9 3.7-4.5 7.2-8.8 11-13.3 2.4-2.8 4.6-3.5 6.6-3.9.9-.2 1.3-.3 2.4-1.5l3.3-3.8c.6-.7.5-1.7-.1-2.3L177 94.8c-.6-.6-1.7-.7-2.3-.1l-3.8 3.3c-1.2 1.1-1.3 1.5-1.5 2.4-.5 2-1.2 4.2-3.9 6.6-4.4 3.8-8.7 7.2-13.2 10.9-5.5 4.5-11.1 9.1-18 14.9-8.5 7.3-17.9 9.8-27.1 12.3-9.6 2.6-18.6 5.1-26.3 12.8l-33.5 33.5c-1.2 1.2-2.8 1.8-4.4 1.6-1.9-.2-3.6-1.4-4.4-3.1-20.1-43.3-11-95 22.7-128.7 21.5-21.5 50.1-33.4 80.5-33.4h1.4c30.9.4 59.8 12.9 81.1 35.4 20.2 21.2 31.3 49.2 31.3 78.7 0 29.6-11.2 57.5-31.5 78.6z"
        fill="#fff" />
</svg>